# xmcd
#
# Track frame offsets:
#	150
#	32997
#	55996
#	92721
#	123565
#	144183
#	163554
#	212953
#
# Disc length: 3178 seconds
#
# Revision: 1
# Processed by: cddbd v1.5.2PL0 Copyright (c) Steve Scherf et al.
# Submitted via: dBpowerAMP V4.0
#
DISCID=700c6808
DTITLE=India - The Inner Spirit Of India
DYEAR=2001
DGENRE=Classical
TTITLE0=Rag pilu
TTITLE1=Sarasasamadana
TTITLE2=Ohun rag khammaj
TTITLE3=Sultan bhai
TTITLE4=Krirt chincadirchara
TTITLE5=Violin improvision Tanam raga aberi
TTITLE6=Misra ohun in oadra tala
TTITLE7=Precussion improvision
EXTD=
EXTT0=
EXTT1=
EXTT2=
EXTT3=
EXTT4=
EXTT5=
EXTT6=
EXTT7=
PLAYORDER=
